<mxfile host="Electron" modified="2023-04-18T07:24:34.006Z" agent="Mozilla/5.0 (Windows NT 10.0; Win64; x64) AppleWebKit/537.36 (KHTML, like Gecko) draw.io/21.1.2 Chrome/106.0.5249.199 Electron/21.4.3 Safari/537.36" etag="t54TMHC8xWjVgb3tJ46z" version="21.1.2" type="device">
  <diagram name="Page-1" id="3Mxax9nP0yoKdiDVb_vd">
    <mxGraphModel dx="890" dy="427" grid="1" gridSize="10" guides="1" tooltips="1" connect="1" arrows="1" fold="1" page="1" pageScale="1" pageWidth="827" pageHeight="1169" math="0" shadow="0">
      <root>
        <mxCell id="0" />
        <mxCell id="1" parent="0" />
        <mxCell id="mX8nYMtyOwDTM2uKszBZ-1" value="&lt;font style=&quot;font-size: 23px;&quot;&gt;System&lt;br&gt;&lt;/font&gt;Car Tuning Configurator" style="rounded=1;whiteSpace=wrap;html=1;fillColor=#f8cecc;strokeColor=#b85450;" parent="1" vertex="1">
          <mxGeometry x="210" y="160" width="370" height="360" as="geometry" />
        </mxCell>
        <mxCell id="i75UTaVvdCeUsGE07NYs-6" style="edgeStyle=orthogonalEdgeStyle;rounded=0;orthogonalLoop=1;jettySize=auto;html=1;" parent="1" edge="1">
          <mxGeometry relative="1" as="geometry">
            <mxPoint x="619.9999999999998" y="90" as="sourcePoint" />
            <mxPoint x="710" y="90" as="targetPoint" />
          </mxGeometry>
        </mxCell>
        <mxCell id="i75UTaVvdCeUsGE07NYs-8" value="has" style="edgeLabel;html=1;align=center;verticalAlign=middle;resizable=0;points=[];" parent="i75UTaVvdCeUsGE07NYs-6" vertex="1" connectable="0">
          <mxGeometry x="-0.2204" relative="1" as="geometry">
            <mxPoint as="offset" />
          </mxGeometry>
        </mxCell>
        <mxCell id="mX8nYMtyOwDTM2uKszBZ-13" style="edgeStyle=orthogonalEdgeStyle;rounded=0;orthogonalLoop=1;jettySize=auto;html=1;" parent="1" source="mX8nYMtyOwDTM2uKszBZ-4" target="mX8nYMtyOwDTM2uKszBZ-10" edge="1">
          <mxGeometry relative="1" as="geometry">
            <mxPoint x="340" y="170" as="targetPoint" />
          </mxGeometry>
        </mxCell>
        <mxCell id="mX8nYMtyOwDTM2uKszBZ-14" value="Car Config" style="edgeLabel;html=1;align=center;verticalAlign=middle;resizable=0;points=[];" parent="mX8nYMtyOwDTM2uKszBZ-13" vertex="1" connectable="0">
          <mxGeometry x="-0.0145" y="-1" relative="1" as="geometry">
            <mxPoint x="1" y="32" as="offset" />
          </mxGeometry>
        </mxCell>
        <mxCell id="mX8nYMtyOwDTM2uKszBZ-22" style="edgeStyle=orthogonalEdgeStyle;rounded=0;orthogonalLoop=1;jettySize=auto;html=1;" parent="1" source="mX8nYMtyOwDTM2uKszBZ-4" edge="1">
          <mxGeometry relative="1" as="geometry">
            <mxPoint x="560" y="90" as="targetPoint" />
          </mxGeometry>
        </mxCell>
        <mxCell id="mX8nYMtyOwDTM2uKszBZ-23" value="owns" style="edgeLabel;html=1;align=center;verticalAlign=middle;resizable=0;points=[];" parent="mX8nYMtyOwDTM2uKszBZ-22" vertex="1" connectable="0">
          <mxGeometry x="-0.3161" y="2" relative="1" as="geometry">
            <mxPoint x="13" y="2" as="offset" />
          </mxGeometry>
        </mxCell>
        <mxCell id="mX8nYMtyOwDTM2uKszBZ-4" value="User" style="shape=umlActor;verticalLabelPosition=bottom;verticalAlign=top;html=1;outlineConnect=0;" parent="1" vertex="1">
          <mxGeometry x="450" y="60" width="30" height="60" as="geometry" />
        </mxCell>
        <mxCell id="mX8nYMtyOwDTM2uKszBZ-10" value="Program" style="rounded=1;whiteSpace=wrap;html=1;" parent="1" vertex="1">
          <mxGeometry x="280" y="220" width="120" height="50" as="geometry" />
        </mxCell>
        <mxCell id="i75UTaVvdCeUsGE07NYs-9" value="car" style="shape=mxgraph.signs.transportation.car_4;html=1;pointerEvents=1;fillColor=#000000;strokeColor=none;verticalLabelPosition=bottom;verticalAlign=top;align=center;" parent="1" vertex="1">
          <mxGeometry x="570" y="72" width="40" height="38" as="geometry" />
        </mxCell>
        <mxCell id="X7Jw8DiVvnN4DwTOnyLk-1" value="" style="endArrow=classic;startArrow=classic;html=1;rounded=0;" parent="1" source="mX8nYMtyOwDTM2uKszBZ-10" edge="1">
          <mxGeometry width="50" height="50" relative="1" as="geometry">
            <mxPoint x="370" y="320" as="sourcePoint" />
            <mxPoint x="450" y="245" as="targetPoint" />
          </mxGeometry>
        </mxCell>
        <mxCell id="X7Jw8DiVvnN4DwTOnyLk-2" value="" style="sketch=0;outlineConnect=0;fontColor=#232F3E;gradientColor=none;fillColor=#2E27AD;strokeColor=none;dashed=0;verticalLabelPosition=bottom;verticalAlign=top;align=center;html=1;fontSize=12;fontStyle=0;aspect=fixed;pointerEvents=1;shape=mxgraph.aws4.rds_mariadb_instance;" parent="1" vertex="1">
          <mxGeometry x="450" y="210" width="74" height="74" as="geometry" />
        </mxCell>
        <mxCell id="X7Jw8DiVvnN4DwTOnyLk-4" value="" style="curved=1;endArrow=classic;html=1;rounded=0;" parent="1" source="mX8nYMtyOwDTM2uKszBZ-4" edge="1">
          <mxGeometry width="50" height="50" relative="1" as="geometry">
            <mxPoint x="490" y="50" as="sourcePoint" />
            <mxPoint x="710" y="84.25531914893617" as="targetPoint" />
            <Array as="points">
              <mxPoint x="490" />
            </Array>
          </mxGeometry>
        </mxCell>
        <mxCell id="X7Jw8DiVvnN4DwTOnyLk-5" value="purchases" style="edgeLabel;html=1;align=center;verticalAlign=middle;resizable=0;points=[];" parent="X7Jw8DiVvnN4DwTOnyLk-4" vertex="1" connectable="0">
          <mxGeometry x="0.0219" y="-8" relative="1" as="geometry">
            <mxPoint as="offset" />
          </mxGeometry>
        </mxCell>
        <mxCell id="tEVQoxpts9UOIQGmgBuE-1" value="TuningItem" style="shape=mxgraph.signs.transportation.tow_away;html=1;pointerEvents=1;fillColor=#000000;strokeColor=none;verticalLabelPosition=bottom;verticalAlign=top;align=center;sketch=0;" vertex="1" parent="1">
          <mxGeometry x="710" y="74.5" width="98" height="31" as="geometry" />
        </mxCell>
      </root>
    </mxGraphModel>
  </diagram>
</mxfile>
